<svg xmlns="http://www.w3.org/2000/svg" xmlns:xlink="http://www.w3.org/1999/xlink" width="500" zoomAndPan="magnify" viewBox="0 0 375 374.999991" height="500" preserveAspectRatio="xMidYMid meet" version="1.0"><defs><clipPath id="d1649059b3"><path d="M 177 19.816406 L 199 19.816406 L 199 136.609375 L 177 136.609375 Z M 177 19.816406 " clip-rule="nonzero"/></clipPath><clipPath id="dae95a64fb"><path d="M 161.484375 19.816406 L 213.214844 19.816406 L 213.214844 136.609375 L 161.484375 136.609375 Z M 161.484375 19.816406 " clip-rule="nonzero"/></clipPath><clipPath id="3b021b8023"><path d="M 19.816406 174 L 136.605469 174 L 136.605469 196 L 19.816406 196 Z M 19.816406 174 " clip-rule="nonzero"/></clipPath><clipPath id="8f8b212a28"><path d="M 19.816406 160.109375 L 136.605469 160.109375 L 136.605469 211.839844 L 19.816406 211.839844 Z M 19.816406 160.109375 " clip-rule="nonzero"/></clipPath><clipPath id="8b2571868e"><path d="M 238.386719 175 L 355.175781 175 L 355.175781 198 L 238.386719 198 Z M 238.386719 175 " clip-rule="nonzero"/></clipPath><clipPath id="e668fe431a"><path d="M 238.386719 159.816406 L 355.175781 159.816406 L 355.175781 211.550781 L 238.386719 211.550781 Z M 238.386719 159.816406 " clip-rule="nonzero"/></clipPath><clipPath id="44a7385d53"><path d="M 93 28 L 162 28 L 162 143 L 93 143 Z M 93 28 " clip-rule="nonzero"/></clipPath><clipPath id="d25de2fcb0"><path d="M 71.582031 40.085938 L 116.1875 13.851562 L 183.871094 128.921875 L 139.265625 155.15625 Z M 71.582031 40.085938 " clip-rule="nonzero"/></clipPath><clipPath id="1241fb7896"><path d="M 71.582031 40.085938 L 116.1875 13.851562 L 183.871094 128.921875 L 139.265625 155.15625 Z M 71.582031 40.085938 " clip-rule="nonzero"/></clipPath><clipPath id="3a3ca02a32"><path d="M 71.582031 40.085938 L 116.1875 13.851562 L 183.871094 128.921875 L 139.265625 155.15625 Z M 71.582031 40.085938 " clip-rule="nonzero"/></clipPath><clipPath id="f16b87f22f"><path d="M 79.910156 54.351562 L 124.703125 28.003906 L 184.117188 129.011719 L 139.320312 155.359375 Z M 79.910156 54.351562 " clip-rule="nonzero"/></clipPath><clipPath id="e6a0a940d8"><path d="M 80.0625 54.484375 L 124.652344 28.257812 L 183.863281 128.925781 L 139.273438 155.152344 Z M 80.0625 54.484375 " clip-rule="nonzero"/></clipPath><clipPath id="6c41b92e81"><path d="M 89 37 L 162 37 L 162 143 L 89 143 Z M 89 37 " clip-rule="nonzero"/></clipPath><clipPath id="5845ca1c8c"><path d="M 71.582031 40.085938 L 116.1875 13.851562 L 183.871094 128.921875 L 139.265625 155.15625 Z M 71.582031 40.085938 " clip-rule="nonzero"/></clipPath><clipPath id="0732598aa7"><path d="M 71.582031 40.085938 L 116.1875 13.851562 L 183.871094 128.921875 L 139.265625 155.15625 Z M 71.582031 40.085938 " clip-rule="nonzero"/></clipPath><clipPath id="f085e759eb"><path d="M 71.582031 40.085938 L 116.1875 13.851562 L 183.871094 128.921875 L 139.265625 155.15625 Z M 71.582031 40.085938 " clip-rule="nonzero"/></clipPath><clipPath id="a9045c8804"><path d="M 79.910156 54.351562 L 124.703125 28.003906 L 184.117188 129.011719 L 139.320312 155.359375 Z M 79.910156 54.351562 " clip-rule="nonzero"/></clipPath><clipPath id="03696e95f0"><path d="M 80.0625 54.484375 L 124.652344 28.257812 L 183.863281 128.925781 L 139.273438 155.152344 Z M 80.0625 54.484375 " clip-rule="nonzero"/></clipPath><clipPath id="3d1e6b06ec"><path d="M 213 229 L 282 229 L 282 344 L 213 344 Z M 213 229 " clip-rule="nonzero"/></clipPath><clipPath id="134d40c433"><path d="M 303.410156 331.570312 L 258.804688 357.808594 L 191.121094 242.738281 L 235.726562 216.5 Z M 303.410156 331.570312 " clip-rule="nonzero"/></clipPath><clipPath id="f0d3b36e62"><path d="M 303.410156 331.570312 L 258.804688 357.808594 L 191.121094 242.738281 L 235.726562 216.5 Z M 303.410156 331.570312 " clip-rule="nonzero"/></clipPath><clipPath id="7ccba91b1d"><path d="M 303.410156 331.570312 L 258.804688 357.808594 L 191.121094 242.738281 L 235.726562 216.5 Z M 303.410156 331.570312 " clip-rule="nonzero"/></clipPath><clipPath id="3172559042"><path d="M 295.082031 317.308594 L 250.289062 343.65625 L 190.875 242.644531 L 235.671875 216.296875 Z M 295.082031 317.308594 " clip-rule="nonzero"/></clipPath><clipPath id="11e452a094"><path d="M 294.929688 317.171875 L 250.339844 343.402344 L 191.125 242.734375 L 235.71875 216.503906 Z M 294.929688 317.171875 " clip-rule="nonzero"/></clipPath><clipPath id="bce51b6f67"><path d="M 213 229 L 286 229 L 286 334 L 213 334 Z M 213 229 " clip-rule="nonzero"/></clipPath><clipPath id="cd552ffeb9"><path d="M 303.410156 331.570312 L 258.804688 357.808594 L 191.121094 242.738281 L 235.726562 216.5 Z M 303.410156 331.570312 " clip-rule="nonzero"/></clipPath><clipPath id="909197ef9a"><path d="M 303.410156 331.570312 L 258.804688 357.808594 L 191.121094 242.738281 L 235.726562 216.5 Z M 303.410156 331.570312 " clip-rule="nonzero"/></clipPath><clipPath id="bf2bc2cf80"><path d="M 303.410156 331.570312 L 258.804688 357.808594 L 191.121094 242.738281 L 235.726562 216.5 Z M 303.410156 331.570312 " clip-rule="nonzero"/></clipPath><clipPath id="014ee1afb4"><path d="M 295.082031 317.308594 L 250.289062 343.65625 L 190.875 242.644531 L 235.671875 216.296875 Z M 295.082031 317.308594 " clip-rule="nonzero"/></clipPath><clipPath id="1d090d0048"><path d="M 294.929688 317.171875 L 250.339844 343.402344 L 191.125 242.734375 L 235.71875 216.503906 Z M 294.929688 317.171875 " clip-rule="nonzero"/></clipPath><clipPath id="19b3585dbf"><path d="M 231 210 L 346 210 L 346 278 L 231 278 Z M 231 210 " clip-rule="nonzero"/></clipPath><clipPath id="f5d7416fbe"><path d="M 360.199219 255.476562 L 334.324219 300.292969 L 218.707031 233.554688 L 244.578125 188.734375 Z M 360.199219 255.476562 " clip-rule="nonzero"/></clipPath><clipPath id="f5c550178b"><path d="M 360.199219 255.476562 L 334.324219 300.292969 L 218.707031 233.554688 L 244.578125 188.734375 Z M 360.199219 255.476562 " clip-rule="nonzero"/></clipPath><clipPath id="07abf6d76e"><path d="M 360.199219 255.476562 L 334.324219 300.292969 L 218.707031 233.554688 L 244.578125 188.734375 Z M 360.199219 255.476562 " clip-rule="nonzero"/></clipPath><clipPath id="65b239a32e"><path d="M 345.921875 247.171875 L 319.941406 292.179688 L 218.449219 233.59375 L 244.429688 188.585938 Z M 345.921875 247.171875 " clip-rule="nonzero"/></clipPath><clipPath id="0d2c369758"><path d="M 345.722656 247.128906 L 319.859375 291.933594 L 218.710938 233.546875 L 244.574219 188.742188 Z M 345.722656 247.128906 " clip-rule="nonzero"/></clipPath><clipPath id="b0a3fbc73e"><path d="M 231 210 L 337 210 L 337 283 L 231 283 Z M 231 210 " clip-rule="nonzero"/></clipPath><clipPath id="a7f8c10dbf"><path d="M 360.199219 255.476562 L 334.324219 300.292969 L 218.707031 233.554688 L 244.578125 188.734375 Z M 360.199219 255.476562 " clip-rule="nonzero"/></clipPath><clipPath id="355519f8ba"><path d="M 360.199219 255.476562 L 334.324219 300.292969 L 218.707031 233.554688 L 244.578125 188.734375 Z M 360.199219 255.476562 " clip-rule="nonzero"/></clipPath><clipPath id="ad2bcf308e"><path d="M 360.199219 255.476562 L 334.324219 300.292969 L 218.707031 233.554688 L 244.578125 188.734375 Z M 360.199219 255.476562 " clip-rule="nonzero"/></clipPath><clipPath id="93e3819270"><path d="M 345.921875 247.171875 L 319.941406 292.179688 L 218.449219 233.59375 L 244.429688 188.585938 Z M 345.921875 247.171875 " clip-rule="nonzero"/></clipPath><clipPath id="8cf78bf47c"><path d="M 345.722656 247.128906 L 319.859375 291.933594 L 218.710938 233.546875 L 244.574219 188.742188 Z M 345.722656 247.128906 " clip-rule="nonzero"/></clipPath><clipPath id="2a28e54f62"><path d="M 29 93 L 144 93 L 144 161 L 29 161 Z M 29 93 " clip-rule="nonzero"/></clipPath><clipPath id="48f1e53e54"><path d="M 14.792969 116.183594 L 40.664062 71.363281 L 156.285156 138.105469 L 130.414062 182.925781 Z M 14.792969 116.183594 " clip-rule="nonzero"/></clipPath><clipPath id="f7bcc85a14"><path d="M 14.792969 116.183594 L 40.664062 71.363281 L 156.285156 138.105469 L 130.414062 182.925781 Z M 14.792969 116.183594 " clip-rule="nonzero"/></clipPath><clipPath id="92b062fe84"><path d="M 14.792969 116.183594 L 40.664062 71.363281 L 156.285156 138.105469 L 130.414062 182.925781 Z M 14.792969 116.183594 " clip-rule="nonzero"/></clipPath><clipPath id="c03e1e48dc"><path d="M 29.070312 124.488281 L 55.050781 79.476562 L 156.542969 138.066406 L 130.5625 183.074219 Z M 29.070312 124.488281 " clip-rule="nonzero"/></clipPath><clipPath id="dd7dbe258d"><path d="M 29.269531 124.527344 L 55.132812 79.726562 L 156.28125 138.113281 L 130.417969 182.917969 Z M 29.269531 124.527344 " clip-rule="nonzero"/></clipPath><clipPath id="07ef9886aa"><path d="M 38 89 L 144 89 L 144 161 L 38 161 Z M 38 89 " clip-rule="nonzero"/></clipPath><clipPath id="f816a93559"><path d="M 14.792969 116.183594 L 40.664062 71.363281 L 156.285156 138.105469 L 130.414062 182.925781 Z M 14.792969 116.183594 " clip-rule="nonzero"/></clipPath><clipPath id="5e8a5fb86f"><path d="M 14.792969 116.183594 L 40.664062 71.363281 L 156.285156 138.105469 L 130.414062 182.925781 Z M 14.792969 116.183594 " clip-rule="nonzero"/></clipPath><clipPath id="bdb036c0c7"><path d="M 14.792969 116.183594 L 40.664062 71.363281 L 156.285156 138.105469 L 130.414062 182.925781 Z M 14.792969 116.183594 " clip-rule="nonzero"/></clipPath><clipPath id="0019e68ef7"><path d="M 29.070312 124.488281 L 55.050781 79.476562 L 156.542969 138.066406 L 130.5625 183.074219 Z M 29.070312 124.488281 " clip-rule="nonzero"/></clipPath><clipPath id="65cd1183a1"><path d="M 29.269531 124.527344 L 55.132812 79.726562 L 156.28125 138.113281 L 130.417969 182.917969 Z M 29.269531 124.527344 " clip-rule="nonzero"/></clipPath><clipPath id="287d4f54c5"><path d="M 95 231 L 163 231 L 163 346 L 95 346 Z M 95 231 " clip-rule="nonzero"/></clipPath><clipPath id="505b22a8ba"><path d="M 117.296875 359.976562 L 72.5625 333.960938 L 139.671875 218.554688 L 184.410156 244.570312 Z M 117.296875 359.976562 " clip-rule="nonzero"/></clipPath><clipPath id="ae098b3491"><path d="M 117.296875 359.976562 L 72.5625 333.960938 L 139.671875 218.554688 L 184.410156 244.570312 Z M 117.296875 359.976562 " clip-rule="nonzero"/></clipPath><clipPath id="ab330e9698"><path d="M 117.296875 359.976562 L 72.5625 333.960938 L 139.671875 218.554688 L 184.410156 244.570312 Z M 117.296875 359.976562 " clip-rule="nonzero"/></clipPath><clipPath id="6d158158ab"><path d="M 125.648438 345.726562 L 80.722656 319.601562 L 139.632812 218.296875 L 184.558594 244.421875 Z M 125.648438 345.726562 " clip-rule="nonzero"/></clipPath><clipPath id="d1720dbe75"><path d="M 125.691406 345.527344 L 80.96875 319.519531 L 139.679688 218.558594 L 184.402344 244.566406 Z M 125.691406 345.527344 " clip-rule="nonzero"/></clipPath><clipPath id="67a5a4be3c"><path d="M 90 231 L 163 231 L 163 337 L 90 337 Z M 90 231 " clip-rule="nonzero"/></clipPath><clipPath id="b84a33f56c"><path d="M 117.296875 359.976562 L 72.5625 333.960938 L 139.671875 218.554688 L 184.410156 244.570312 Z M 117.296875 359.976562 " clip-rule="nonzero"/></clipPath><clipPath id="c4cccb5e1d"><path d="M 117.296875 359.976562 L 72.5625 333.960938 L 139.671875 218.554688 L 184.410156 244.570312 Z M 117.296875 359.976562 " clip-rule="nonzero"/></clipPath><clipPath id="a26f3467b1"><path d="M 117.296875 359.976562 L 72.5625 333.960938 L 139.671875 218.554688 L 184.410156 244.570312 Z M 117.296875 359.976562 " clip-rule="nonzero"/></clipPath><clipPath id="b84ad1bec9"><path d="M 125.648438 345.726562 L 80.722656 319.601562 L 139.632812 218.296875 L 184.558594 244.421875 Z M 125.648438 345.726562 " clip-rule="nonzero"/></clipPath><clipPath id="28649ed282"><path d="M 125.691406 345.527344 L 80.96875 319.519531 L 139.679688 218.558594 L 184.402344 244.566406 Z M 125.691406 345.527344 " clip-rule="nonzero"/></clipPath><clipPath id="4bcc66485a"><path d="M 212 29 L 280 29 L 280 144 L 212 144 Z M 212 29 " clip-rule="nonzero"/></clipPath><clipPath id="e65ef9cfa0"><path d="M 257.691406 15.019531 L 302.429688 41.035156 L 235.320312 156.4375 L 190.582031 130.425781 Z M 257.691406 15.019531 " clip-rule="nonzero"/></clipPath><clipPath id="8e29dd2a97"><path d="M 257.691406 15.019531 L 302.429688 41.035156 L 235.320312 156.4375 L 190.582031 130.425781 Z M 257.691406 15.019531 " clip-rule="nonzero"/></clipPath><clipPath id="102c28c563"><path d="M 257.691406 15.019531 L 302.429688 41.035156 L 235.320312 156.4375 L 190.582031 130.425781 Z M 257.691406 15.019531 " clip-rule="nonzero"/></clipPath><clipPath id="7a45158184"><path d="M 249.34375 29.265625 L 294.269531 55.390625 L 235.359375 156.695312 L 190.433594 130.570312 Z M 249.34375 29.265625 " clip-rule="nonzero"/></clipPath><clipPath id="ba1f3999b6"><path d="M 249.300781 29.46875 L 294.023438 55.472656 L 235.3125 156.433594 L 190.589844 130.429688 Z M 249.300781 29.46875 " clip-rule="nonzero"/></clipPath><clipPath id="43167641a0"><path d="M 212 38 L 285 38 L 285 144 L 212 144 Z M 212 38 " clip-rule="nonzero"/></clipPath><clipPath id="3b5911b0dd"><path d="M 257.691406 15.019531 L 302.429688 41.035156 L 235.320312 156.4375 L 190.582031 130.425781 Z M 257.691406 15.019531 " clip-rule="nonzero"/></clipPath><clipPath id="eba7eca0e2"><path d="M 257.691406 15.019531 L 302.429688 41.035156 L 235.320312 156.4375 L 190.582031 130.425781 Z M 257.691406 15.019531 " clip-rule="nonzero"/></clipPath><clipPath id="458eb69cae"><path d="M 257.691406 15.019531 L 302.429688 41.035156 L 235.320312 156.4375 L 190.582031 130.425781 Z M 257.691406 15.019531 " clip-rule="nonzero"/></clipPath><clipPath id="4cdef292a4"><path d="M 249.34375 29.265625 L 294.269531 55.390625 L 235.359375 156.695312 L 190.433594 130.570312 Z M 249.34375 29.265625 " clip-rule="nonzero"/></clipPath><clipPath id="8741da846c"><path d="M 249.300781 29.46875 L 294.023438 55.472656 L 235.3125 156.433594 L 190.589844 130.429688 Z M 249.300781 29.46875 " clip-rule="nonzero"/></clipPath><clipPath id="0a4e40cf7a"><path d="M 29 213 L 144 213 L 144 282 L 29 282 Z M 29 213 " clip-rule="nonzero"/></clipPath><clipPath id="43848d84eb"><path d="M 41.648438 303.277344 L 15.453125 258.644531 L 130.585938 191.070312 L 156.78125 235.699219 Z M 41.648438 303.277344 " clip-rule="nonzero"/></clipPath><clipPath id="eae7a3fcb4"><path d="M 41.648438 303.277344 L 15.453125 258.644531 L 130.585938 191.070312 L 156.78125 235.699219 Z M 41.648438 303.277344 " clip-rule="nonzero"/></clipPath><clipPath id="708337066a"><path d="M 41.648438 303.277344 L 15.453125 258.644531 L 130.585938 191.070312 L 156.78125 235.699219 Z M 41.648438 303.277344 " clip-rule="nonzero"/></clipPath><clipPath id="f59129e9d5"><path d="M 55.917969 294.964844 L 29.609375 250.144531 L 130.675781 190.824219 L 156.984375 235.644531 Z M 55.917969 294.964844 " clip-rule="nonzero"/></clipPath><clipPath id="2142ce174f"><path d="M 56.054688 294.808594 L 29.867188 250.195312 L 130.589844 191.074219 L 156.777344 235.691406 Z M 56.054688 294.808594 " clip-rule="nonzero"/></clipPath><clipPath id="56163b629c"><path d="M 39 213 L 144 213 L 144 286 L 39 286 Z M 39 213 " clip-rule="nonzero"/></clipPath><clipPath id="a9c257deb5"><path d="M 41.648438 303.277344 L 15.453125 258.644531 L 130.585938 191.070312 L 156.78125 235.699219 Z M 41.648438 303.277344 " clip-rule="nonzero"/></clipPath><clipPath id="41cb30ff65"><path d="M 41.648438 303.277344 L 15.453125 258.644531 L 130.585938 191.070312 L 156.78125 235.699219 Z M 41.648438 303.277344 " clip-rule="nonzero"/></clipPath><clipPath id="4650877879"><path d="M 41.648438 303.277344 L 15.453125 258.644531 L 130.585938 191.070312 L 156.78125 235.699219 Z M 41.648438 303.277344 " clip-rule="nonzero"/></clipPath><clipPath id="4e0f95e589"><path d="M 55.917969 294.964844 L 29.609375 250.144531 L 130.675781 190.824219 L 156.984375 235.644531 Z M 55.917969 294.964844 " clip-rule="nonzero"/></clipPath><clipPath id="128b21c25d"><path d="M 56.054688 294.808594 L 29.867188 250.195312 L 130.589844 191.074219 L 156.777344 235.691406 Z M 56.054688 294.808594 " clip-rule="nonzero"/></clipPath><clipPath id="da8c2565f5"><path d="M 231 93 L 346 93 L 346 162 L 231 162 Z M 231 93 " clip-rule="nonzero"/></clipPath><clipPath id="84067cb701"><path d="M 333.34375 71.71875 L 359.539062 116.347656 L 244.40625 183.925781 L 218.210938 139.296875 Z M 333.34375 71.71875 " clip-rule="nonzero"/></clipPath><clipPath id="5c42a9a41d"><path d="M 333.34375 71.71875 L 359.539062 116.347656 L 244.40625 183.925781 L 218.210938 139.296875 Z M 333.34375 71.71875 " clip-rule="nonzero"/></clipPath><clipPath id="1b7695f5fb"><path d="M 333.34375 71.71875 L 359.539062 116.347656 L 244.40625 183.925781 L 218.210938 139.296875 Z M 333.34375 71.71875 " clip-rule="nonzero"/></clipPath><clipPath id="be8fa55db7"><path d="M 319.074219 80.03125 L 345.382812 124.851562 L 244.316406 184.171875 L 218.007812 139.351562 Z M 319.074219 80.03125 " clip-rule="nonzero"/></clipPath><clipPath id="2ac77fc2a4"><path d="M 318.9375 80.183594 L 345.125 124.800781 L 244.402344 183.917969 L 218.214844 139.304688 Z M 318.9375 80.183594 " clip-rule="nonzero"/></clipPath><clipPath id="955232c61a"><path d="M 231 89 L 336 89 L 336 162 L 231 162 Z M 231 89 " clip-rule="nonzero"/></clipPath><clipPath id="2f702db02c"><path d="M 333.34375 71.71875 L 359.539062 116.347656 L 244.40625 183.925781 L 218.210938 139.296875 Z M 333.34375 71.71875 " clip-rule="nonzero"/></clipPath><clipPath id="9a300990c9"><path d="M 333.34375 71.71875 L 359.539062 116.347656 L 244.40625 183.925781 L 218.210938 139.296875 Z M 333.34375 71.71875 " clip-rule="nonzero"/></clipPath><clipPath id="c8da19debc"><path d="M 333.34375 71.71875 L 359.539062 116.347656 L 244.40625 183.925781 L 218.210938 139.296875 Z M 333.34375 71.71875 " clip-rule="nonzero"/></clipPath><clipPath id="fb686cb6ad"><path d="M 319.074219 80.03125 L 345.382812 124.851562 L 244.316406 184.171875 L 218.007812 139.351562 Z M 319.074219 80.03125 " clip-rule="nonzero"/></clipPath><clipPath id="84a8ae8a9e"><path d="M 318.9375 80.183594 L 345.125 124.800781 L 244.402344 183.917969 L 218.214844 139.304688 Z M 318.9375 80.183594 " clip-rule="nonzero"/></clipPath><clipPath id="b0dc87eac8"><path d="M 176 238.386719 L 198 238.386719 L 198 355.175781 L 176 355.175781 Z M 176 238.386719 " clip-rule="nonzero"/></clipPath><clipPath id="2561420dcf"><path d="M 161.777344 238.386719 L 213.507812 238.386719 L 213.507812 355.175781 L 161.777344 355.175781 Z M 161.777344 238.386719 " clip-rule="nonzero"/></clipPath></defs><g clip-path="url(#d1649059b3)"><path fill="#fff200" d="M 187.09375 136.609375 C 190.183594 97.746094 194.21875 86.164062 198.898438 78.058594 C 161.621094 17.898438 183.953125 60.253906 187.09375 3.109375 Z M 187.09375 136.609375 " fill-opacity="1" fill-rule="nonzero"/></g><g clip-path="url(#dae95a64fb)"><path fill="#fff200" d="M 187.09375 136.609375 C 183.953125 92.011719 177.371094 81.417969 171.253906 70.5625 C 167.941406 64.683594 164.277344 58.703125 162.527344 52.285156 C 157.90625 35.328125 169.6875 21.582031 184.273438 20.003906 C 194.574219 18.886719 203.046875 22.785156 208.816406 31.5 C 214.414062 39.957031 214.457031 49.054688 209.976562 57.996094 C 194.21875 86.164062 190.183594 94.398438 187.714844 103.351562 Z M 187.09375 136.609375 " fill-opacity="1" fill-rule="evenodd"/></g><g clip-path="url(#3b021b8023)"><path fill="#fff200" d="M 136.605469 186.230469 C 97.746094 183.140625 86.160156 179.105469 78.054688 174.425781 C 17.898438 211.703125 60.25 189.371094 3.105469 186.230469 Z M 136.605469 186.230469 " fill-opacity="1" fill-rule="nonzero"/></g><g clip-path="url(#8f8b212a28)"><path fill="#fff200" d="M 136.605469 186.230469 C 92.011719 189.371094 81.414062 195.957031 70.558594 202.070312 C 64.679688 205.386719 58.703125 209.046875 52.285156 210.796875 C 35.324219 215.417969 21.578125 203.636719 20.003906 189.050781 C 18.886719 178.75 22.78125 170.28125 31.496094 164.511719 C 39.957031 158.910156 49.050781 158.867188 57.992188 163.351562 C 86.160156 179.105469 94.398438 183.140625 103.347656 185.609375 Z M 136.605469 186.230469 " fill-opacity="1" fill-rule="evenodd"/></g><g clip-path="url(#8b2571868e)"><path fill="#fff200" d="M 238.386719 185.429688 C 277.246094 188.515625 288.832031 192.550781 296.9375 197.234375 C 357.09375 159.953125 314.738281 182.289062 371.886719 185.429688 Z M 238.386719 185.429688 " fill-opacity="1" fill-rule="nonzero"/></g><g clip-path="url(#e668fe431a)"><path fill="#fff200" d="M 238.386719 185.429688 C 282.980469 182.285156 293.578125 175.703125 304.433594 169.585938 C 310.3125 166.273438 316.289062 162.613281 322.707031 160.863281 C 339.667969 156.238281 353.414062 168.019531 354.988281 182.605469 C 356.105469 192.910156 352.210938 201.378906 343.496094 207.148438 C 335.035156 212.746094 325.941406 212.789062 316.996094 208.308594 C 288.832031 192.550781 280.59375 188.515625 271.644531 186.050781 Z M 238.386719 185.429688 " fill-opacity="1" fill-rule="evenodd"/></g><g clip-path="url(#44a7385d53)"><g clip-path="url(#d25de2fcb0)"><g clip-path="url(#1241fb7896)"><g clip-path="url(#3a3ca02a32)"><g clip-path="url(#f16b87f22f)"><g clip-path="url(#e6a0a940d8)"><path fill="#fff200" d="M 161.351562 142.167969 C 144.308594 107.105469 141.914062 95.074219 141.839844 85.714844 C 79.207031 52.761719 119.929688 77.945312 93.667969 27.097656 Z M 161.351562 142.167969 " fill-opacity="1" fill-rule="nonzero"/></g></g></g></g></g></g><g clip-path="url(#6c41b92e81)"><g clip-path="url(#5845ca1c8c)"><g clip-path="url(#0732598aa7)"><g clip-path="url(#f085e759eb)"><g clip-path="url(#a9045c8804)"><g clip-path="url(#03696e95f0)"><path fill="#fff200" d="M 161.351562 142.167969 C 136.03125 105.320312 124.984375 99.527344 114.210938 93.269531 C 108.375 89.882812 102.1875 86.585938 97.425781 81.941406 C 84.839844 69.667969 88.027344 51.84375 99.800781 43.089844 C 108.113281 36.90625 117.390625 35.96875 126.78125 40.558594 C 135.898438 45.007812 140.542969 52.828125 141.214844 62.808594 C 141.914062 95.074219 142.613281 104.222656 145.023438 113.1875 Z M 161.351562 142.167969 " fill-opacity="1" fill-rule="evenodd"/></g></g></g></g></g></g><g clip-path="url(#3d1e6b06ec)"><g clip-path="url(#134d40c433)"><g clip-path="url(#f0d3b36e62)"><g clip-path="url(#7ccba91b1d)"><g clip-path="url(#3172559042)"><g clip-path="url(#11e452a094)"><path fill="#fff200" d="M 213.640625 229.488281 C 230.683594 264.550781 233.078125 276.582031 233.152344 285.941406 C 295.785156 318.894531 255.0625 293.710938 281.324219 344.558594 Z M 213.640625 229.488281 " fill-opacity="1" fill-rule="nonzero"/></g></g></g></g></g></g><g clip-path="url(#bce51b6f67)"><g clip-path="url(#cd552ffeb9)"><g clip-path="url(#909197ef9a)"><g clip-path="url(#bf2bc2cf80)"><g clip-path="url(#014ee1afb4)"><g clip-path="url(#1d090d0048)"><path fill="#fff200" d="M 213.640625 229.488281 C 238.960938 266.335938 250.007812 272.132812 260.78125 278.386719 C 266.617188 281.773438 272.804688 285.070312 277.566406 289.714844 C 290.152344 301.992188 286.964844 319.8125 275.191406 328.566406 C 266.878906 334.75 257.601562 335.6875 248.210938 331.101562 C 239.09375 326.648438 234.449219 318.828125 233.777344 308.851562 C 233.078125 276.582031 232.378906 267.4375 229.96875 258.472656 Z M 213.640625 229.488281 " fill-opacity="1" fill-rule="evenodd"/></g></g></g></g></g></g><g clip-path="url(#19b3585dbf)"><g clip-path="url(#f5d7416fbe)"><g clip-path="url(#f5c550178b)"><g clip-path="url(#07abf6d76e)"><g clip-path="url(#65b239a32e)"><g clip-path="url(#0d2c369758)"><path fill="#fff200" d="M 231.769531 210.921875 C 263.882812 233.023438 271.898438 242.3125 276.578125 250.417969 C 347.3125 248.207031 299.46875 246.375 347.390625 277.664062 Z M 231.769531 210.921875 " fill-opacity="1" fill-rule="nonzero"/></g></g></g></g></g></g><g clip-path="url(#b0a3fbc73e)"><g clip-path="url(#a7f8c10dbf)"><g clip-path="url(#355519f8ba)"><g clip-path="url(#ad2bcf308e)"><g clip-path="url(#93e3819270)"><g clip-path="url(#8cf78bf47c)"><path fill="#fff200" d="M 231.769531 210.921875 C 271.964844 230.496094 284.433594 230.09375 296.890625 230.222656 C 303.636719 230.292969 310.648438 230.109375 317.078125 231.800781 C 334.078125 236.277344 340.09375 253.351562 334.167969 266.773438 C 329.984375 276.253906 322.375 281.640625 311.941406 282.28125 C 301.816406 282.902344 293.917969 278.390625 288.414062 270.039062 C 271.898438 242.3125 266.78125 234.699219 260.261719 228.089844 Z M 231.769531 210.921875 " fill-opacity="1" fill-rule="evenodd"/></g></g></g></g></g></g><g clip-path="url(#2a28e54f62)"><g clip-path="url(#48f1e53e54)"><g clip-path="url(#f7bcc85a14)"><g clip-path="url(#92b062fe84)"><g clip-path="url(#c03e1e48dc)"><g clip-path="url(#dd7dbe258d)"><path fill="#fff200" d="M 143.222656 160.734375 C 111.109375 138.632812 103.09375 129.347656 98.414062 121.238281 C 27.675781 123.449219 75.523438 125.28125 27.601562 93.992188 Z M 143.222656 160.734375 " fill-opacity="1" fill-rule="nonzero"/></g></g></g></g></g></g><g clip-path="url(#07ef9886aa)"><g clip-path="url(#f816a93559)"><g clip-path="url(#5e8a5fb86f)"><g clip-path="url(#bdb036c0c7)"><g clip-path="url(#0019e68ef7)"><g clip-path="url(#65cd1183a1)"><path fill="#fff200" d="M 143.222656 160.734375 C 103.027344 141.160156 90.558594 141.566406 78.101562 141.4375 C 71.355469 141.367188 64.34375 141.546875 57.914062 139.855469 C 40.914062 135.382812 34.898438 118.304688 40.824219 104.882812 C 45.007812 95.40625 52.617188 90.015625 63.050781 89.375 C 73.175781 88.757812 81.074219 93.265625 86.578125 101.617188 C 103.09375 129.347656 108.210938 136.960938 114.730469 143.570312 Z M 143.222656 160.734375 " fill-opacity="1" fill-rule="evenodd"/></g></g></g></g></g></g><g clip-path="url(#287d4f54c5)"><g clip-path="url(#505b22a8ba)"><g clip-path="url(#ae098b3491)"><g clip-path="url(#ab330e9698)"><g clip-path="url(#6d158158ab)"><g clip-path="url(#d1720dbe75)"><path fill="#fff200" d="M 162.261719 231.691406 C 140.054688 263.730469 130.742188 271.71875 122.621094 276.371094 C 124.609375 347.117188 126.59375 299.277344 95.152344 347.097656 Z M 162.261719 231.691406 " fill-opacity="1" fill-rule="nonzero"/></g></g></g></g></g></g><g clip-path="url(#67a5a4be3c)"><g clip-path="url(#b84a33f56c)"><g clip-path="url(#c4cccb5e1d)"><g clip-path="url(#a26f3467b1)"><g clip-path="url(#b84ad1bec9)"><g clip-path="url(#28649ed282)"><path fill="#fff200" d="M 162.261719 231.691406 C 142.558594 271.824219 142.921875 284.292969 142.753906 296.75 C 142.664062 303.496094 142.824219 310.507812 141.109375 316.933594 C 136.582031 333.917969 119.484375 339.878906 106.082031 333.910156 C 96.617188 329.695312 91.253906 322.070312 90.644531 311.636719 C 90.058594 301.507812 94.59375 293.625 102.964844 288.148438 C 130.742188 271.71875 138.375 266.625 145.003906 260.128906 Z M 162.261719 231.691406 " fill-opacity="1" fill-rule="evenodd"/></g></g></g></g></g></g><g clip-path="url(#4bcc66485a)"><g clip-path="url(#e65ef9cfa0)"><g clip-path="url(#8e29dd2a97)"><g clip-path="url(#102c28c563)"><g clip-path="url(#7a45158184)"><g clip-path="url(#ba1f3999b6)"><path fill="#fff200" d="M 212.730469 143.304688 C 234.9375 111.261719 244.25 103.277344 252.371094 98.625 C 250.382812 27.878906 248.398438 75.71875 279.839844 27.898438 Z M 212.730469 143.304688 " fill-opacity="1" fill-rule="nonzero"/></g></g></g></g></g></g><g clip-path="url(#43167641a0)"><g clip-path="url(#3b5911b0dd)"><g clip-path="url(#eba7eca0e2)"><g clip-path="url(#458eb69cae)"><g clip-path="url(#4cdef292a4)"><g clip-path="url(#8741da846c)"><path fill="#fff200" d="M 212.730469 143.304688 C 232.433594 103.171875 232.070312 90.703125 232.238281 78.246094 C 232.328125 71.496094 232.167969 64.488281 233.882812 58.0625 C 238.410156 41.078125 255.507812 35.117188 268.910156 41.085938 C 278.375 45.300781 283.738281 52.925781 284.347656 63.359375 C 284.933594 73.488281 280.398438 81.371094 272.027344 86.847656 C 244.25 103.277344 236.617188 108.367188 229.988281 114.867188 Z M 212.730469 143.304688 " fill-opacity="1" fill-rule="evenodd"/></g></g></g></g></g></g><g clip-path="url(#0a4e40cf7a)"><g clip-path="url(#43848d84eb)"><g clip-path="url(#eae7a3fcb4)"><g clip-path="url(#708337066a)"><g clip-path="url(#f59129e9d5)"><g clip-path="url(#2142ce174f)"><path fill="#fff200" d="M 143.8125 213.601562 C 108.734375 230.609375 96.699219 232.996094 87.339844 233.058594 C 54.328125 295.660156 79.550781 254.960938 28.679688 281.179688 Z M 143.8125 213.601562 " fill-opacity="1" fill-rule="nonzero"/></g></g></g></g></g></g><g clip-path="url(#56163b629c)"><g clip-path="url(#a9c257deb5)"><g clip-path="url(#41cb30ff65)"><g clip-path="url(#4650877879)"><g clip-path="url(#4e0f95e589)"><g clip-path="url(#128b21c25d)"><path fill="#fff200" d="M 143.8125 213.601562 C 106.941406 238.886719 101.136719 249.929688 94.871094 260.699219 C 91.476562 266.53125 88.175781 272.714844 83.527344 277.472656 C 71.238281 290.042969 53.421875 286.84375 44.675781 275.0625 C 38.5 266.742188 37.574219 257.464844 42.167969 248.078125 C 46.628906 238.964844 54.453125 234.324219 64.433594 233.664062 C 96.699219 232.996094 105.847656 232.304688 114.8125 229.902344 Z M 143.8125 213.601562 " fill-opacity="1" fill-rule="evenodd"/></g></g></g></g></g></g><g clip-path="url(#da8c2565f5)"><g clip-path="url(#84067cb701)"><g clip-path="url(#5c42a9a41d)"><g clip-path="url(#1b7695f5fb)"><g clip-path="url(#be8fa55db7)"><g clip-path="url(#2ac77fc2a4)"><path fill="#fff200" d="M 231.179688 161.390625 C 266.257812 144.382812 278.292969 142 287.652344 141.933594 C 320.664062 79.332031 295.441406 120.03125 346.3125 93.816406 Z M 231.179688 161.390625 " fill-opacity="1" fill-rule="nonzero"/></g></g></g></g></g></g><g clip-path="url(#955232c61a)"><g clip-path="url(#2f702db02c)"><g clip-path="url(#9a300990c9)"><g clip-path="url(#c8da19debc)"><g clip-path="url(#fb686cb6ad)"><g clip-path="url(#84a8ae8a9e)"><path fill="#fff200" d="M 231.179688 161.390625 C 268.050781 136.105469 273.855469 125.066406 280.121094 114.296875 C 283.515625 108.464844 286.816406 102.28125 291.464844 97.523438 C 303.753906 84.949219 321.570312 88.152344 330.316406 99.933594 C 336.492188 108.253906 337.417969 117.53125 332.824219 126.917969 C 328.363281 136.027344 320.539062 140.667969 310.558594 141.332031 C 278.292969 142 269.144531 142.6875 260.175781 145.09375 Z M 231.179688 161.390625 " fill-opacity="1" fill-rule="evenodd"/></g></g></g></g></g></g><g clip-path="url(#b0dc87eac8)"><path fill="#fff200" d="M 187.898438 238.386719 C 184.808594 277.246094 180.773438 288.832031 176.09375 296.9375 C 213.371094 357.09375 191.039062 314.742188 187.898438 371.886719 Z M 187.898438 238.386719 " fill-opacity="1" fill-rule="nonzero"/></g><g clip-path="url(#2561420dcf)"><path fill="#fff200" d="M 187.898438 238.386719 C 191.039062 282.984375 197.621094 293.578125 203.738281 304.433594 C 207.050781 310.3125 210.714844 316.292969 212.464844 322.707031 C 217.085938 339.667969 205.304688 353.414062 190.71875 354.992188 C 180.417969 356.105469 171.945312 352.210938 166.175781 343.496094 C 160.578125 335.035156 160.535156 325.941406 165.015625 317 C 180.773438 288.832031 184.808594 280.59375 187.277344 271.644531 Z M 187.898438 238.386719 " fill-opacity="1" fill-rule="evenodd"/></g></svg>